<svg width="32" height="36" viewBox="0 0 32 36" fill="none" xmlns="http://www.w3.org/2000/svg">
<path d="M0 6.75C0 5.50547 1.02143 4.5 2.28571 4.5H29.7143C30.9786 4.5 32 5.50547 32 6.75C32 7.99453 30.9786 9 29.7143 9H2.28571C1.02143 9 0 7.99453 0 6.75ZM0 18C0 16.7555 1.02143 15.75 2.28571 15.75H29.7143C30.9786 15.75 32 16.7555 32 18C32 19.2445 30.9786 20.25 29.7143 20.25H2.28571C1.02143 20.25 0 19.2445 0 18ZM32 29.25C32 30.4945 30.9786 31.5 29.7143 31.5H2.28571C1.02143 31.5 0 30.4945 0 29.25C0 28.0055 1.02143 27 2.28571 27H29.7143C30.9786 27 32 28.0055 32 29.25Z" fill="black"/>
</svg>
