<svg width="56" height="45" viewBox="0 0 56 45" fill="none" xmlns="http://www.w3.org/2000/svg">
<g clip-path="url(#clip0_23_522)">
<path d="M0 4.21875C0 1.88965 1.88125 0 4.2 0H29.4C31.7188 0 33.6 1.88965 33.6 4.21875V40.7812C33.6 43.1104 31.7188 45 29.4 45H21V37.9688C21 35.6396 19.1187 33.75 16.8 33.75C14.4812 33.75 12.6 35.6396 12.6 37.9688V45H4.2C1.88125 45 0 43.1104 0 40.7812V4.21875ZM7 19.6875C6.23 19.6875 5.6 20.3203 5.6 21.0938V23.9062C5.6 24.6797 6.23 25.3125 7 25.3125H9.8C10.57 25.3125 11.2 24.6797 11.2 23.9062V21.0938C11.2 20.3203 10.57 19.6875 9.8 19.6875H7ZM14 21.0938V23.9062C14 24.6797 14.63 25.3125 15.4 25.3125H18.2C18.97 25.3125 19.6 24.6797 19.6 23.9062V21.0938C19.6 20.3203 18.97 19.6875 18.2 19.6875H15.4C14.63 19.6875 14 20.3203 14 21.0938ZM23.8 19.6875C23.03 19.6875 22.4 20.3203 22.4 21.0938V23.9062C22.4 24.6797 23.03 25.3125 23.8 25.3125H26.6C27.37 25.3125 28 24.6797 28 23.9062V21.0938C28 20.3203 27.37 19.6875 26.6 19.6875H23.8ZM5.6 9.84375V12.6562C5.6 13.4297 6.23 14.0625 7 14.0625H9.8C10.57 14.0625 11.2 13.4297 11.2 12.6562V9.84375C11.2 9.07031 10.57 8.4375 9.8 8.4375H7C6.23 8.4375 5.6 9.07031 5.6 9.84375ZM15.4 8.4375C14.63 8.4375 14 9.07031 14 9.84375V12.6562C14 13.4297 14.63 14.0625 15.4 14.0625H18.2C18.97 14.0625 19.6 13.4297 19.6 12.6562V9.84375C19.6 9.07031 18.97 8.4375 18.2 8.4375H15.4ZM22.4 9.84375V12.6562C22.4 13.4297 23.03 14.0625 23.8 14.0625H26.6C27.37 14.0625 28 13.4297 28 12.6562V9.84375C28 9.07031 27.37 8.4375 26.6 8.4375H23.8C23.03 8.4375 22.4 9.07031 22.4 9.84375ZM56 16.875V18.2812C56 22.166 52.8675 25.3125 49 25.3125H47.6V23.9062C47.6 20.0215 50.7325 16.875 54.6 16.875H56ZM56 28.125C56 32.0098 52.8675 35.1562 49 35.1562H47.6V33.75C47.6 29.8652 50.7325 26.7188 54.6 26.7188H56V28.125ZM56 37.9688C56 41.8535 52.8675 45 49 45H47.6V43.5938C47.6 39.709 50.7325 36.5625 54.6 36.5625H56V37.9688ZM44.8 43.5938V45H43.4C39.5325 45 36.4 41.8535 36.4 37.9688V36.5625H37.8C41.6675 36.5625 44.8 39.709 44.8 43.5938ZM44.8 35.1562H43.4C39.5325 35.1562 36.4 32.0098 36.4 28.125V26.7188H37.8C41.6675 26.7188 44.8 29.8652 44.8 33.75V35.1562ZM44.8 23.9062V25.3125H43.4C39.5325 25.3125 36.4 22.166 36.4 18.2812V16.875H37.8C41.6675 16.875 44.8 20.0215 44.8 23.9062ZM46.2 2.8125C47.3638 2.8125 48.3 3.75293 48.3 4.92188V14.0625C48.3 15.2314 47.3638 16.1719 46.2 16.1719C45.0363 16.1719 44.1 15.2314 44.1 14.0625V4.92188C44.1 3.75293 45.0363 2.8125 46.2 2.8125ZM54.6 8.4375V11.25C54.6 12.4189 53.6637 13.3594 52.5 13.3594C51.3363 13.3594 50.4 12.4189 50.4 11.25V8.4375C50.4 7.26855 51.3363 6.32812 52.5 6.32812C53.6637 6.32812 54.6 7.26855 54.6 8.4375ZM39.9 6.32812C41.0638 6.32812 42 7.26855 42 8.4375V11.25C42 12.4189 41.0638 13.3594 39.9 13.3594C38.7362 13.3594 37.8 12.4189 37.8 11.25V8.4375C37.8 7.26855 38.7362 6.32812 39.9 6.32812Z" fill="black"/>
</g>
<defs>
<clipPath id="clip0_23_522">
<rect width="56" height="45" fill="white"/>
</clipPath>
</defs>
</svg>
