<svg width="177" height="25" viewBox="0 0 177 25" fill="none" xmlns="http://www.w3.org/2000/svg">
<path d="M17.15 9.15C16.57 7.93 15.73 6.99 14.63 6.33C13.53 5.65 12.25 5.31 10.79 5.31C9.33 5.31 8.01 5.65 6.83 6.33C5.67 6.99 4.75 7.95 4.07 9.21C3.41 10.45 3.08 11.89 3.08 13.53C3.08 15.17 3.41 16.61 4.07 17.85C4.75 19.09 5.67 20.05 6.83 20.73C8.01 21.39 9.33 21.72 10.79 21.72C12.83 21.72 14.51 21.11 15.83 19.89C17.15 18.67 17.92 17.02 18.14 14.94H9.8V12.72H21.05V14.82C20.89 16.54 20.35 18.12 19.43 19.56C18.51 20.98 17.3 22.11 15.8 22.95C14.3 23.77 12.63 24.18 10.79 24.18C8.85 24.18 7.08 23.73 5.48 22.83C3.88 21.91 2.61 20.64 1.67 19.02C0.75 17.4 0.29 15.57 0.29 13.53C0.29 11.49 0.75 9.66 1.67 8.04C2.61 6.4 3.88 5.13 5.48 4.23C7.08 3.31 8.85 2.85 10.79 2.85C13.01 2.85 14.97 3.4 16.67 4.5C18.39 5.6 19.64 7.15 20.42 9.15H17.15ZM29.4896 10.23C29.9696 9.29 30.6496 8.56 31.5296 8.04C32.4296 7.52 33.5196 7.26 34.7996 7.26V10.08H34.0796C31.0196 10.08 29.4896 11.74 29.4896 15.06V24H26.7596V7.56H29.4896V10.23ZM41.461 4.89C40.941 4.89 40.501 4.71 40.141 4.35C39.781 3.99 39.601 3.55 39.601 3.03C39.601 2.51 39.781 2.07 40.141 1.71C40.501 1.35 40.941 1.17 41.461 1.17C41.961 1.17 42.381 1.35 42.721 1.71C43.081 2.07 43.261 2.51 43.261 3.03C43.261 3.55 43.081 3.99 42.721 4.35C42.381 4.71 41.961 4.89 41.461 4.89ZM42.781 7.56V24H40.051V7.56H42.781ZM57.6938 7.26C58.9338 7.26 60.0538 7.53 61.0538 8.07C62.0538 8.59 62.8338 9.38 63.3938 10.44C63.9738 11.5 64.2638 12.79 64.2638 14.31V24H61.5638V14.7C61.5638 13.06 61.1538 11.81 60.3338 10.95C59.5138 10.07 58.3938 9.63 56.9738 9.63C55.5338 9.63 54.3838 10.08 53.5238 10.98C52.6838 11.88 52.2638 13.19 52.2638 14.91V24H49.5338V1.8H52.2638V9.9C52.8038 9.06 53.5438 8.41 54.4838 7.95C55.4438 7.49 56.5138 7.26 57.6938 7.26ZM69.8033 15.72C69.8033 14.04 70.1433 12.57 70.8233 11.31C71.5033 10.03 72.4333 9.04 73.6133 8.34C74.8133 7.64 76.1433 7.29 77.6033 7.29C79.0433 7.29 80.2933 7.6 81.3533 8.22C82.4133 8.84 83.2033 9.62 83.7233 10.56V7.56H86.4833V24H83.7233V20.94C83.1833 21.9 82.3733 22.7 81.2933 23.34C80.2333 23.96 78.9933 24.27 77.5733 24.27C76.1133 24.27 74.7933 23.91 73.6133 23.19C72.4333 22.47 71.5033 21.46 70.8233 20.16C70.1433 18.86 69.8033 17.38 69.8033 15.72ZM83.7233 15.75C83.7233 14.51 83.4733 13.43 82.9733 12.51C82.4733 11.59 81.7933 10.89 80.9333 10.41C80.0933 9.91 79.1633 9.66 78.1433 9.66C77.1233 9.66 76.1933 9.9 75.3533 10.38C74.5133 10.86 73.8433 11.56 73.3433 12.48C72.8433 13.4 72.5933 14.48 72.5933 15.72C72.5933 16.98 72.8433 18.08 73.3433 19.02C73.8433 19.94 74.5133 20.65 75.3533 21.15C76.1933 21.63 77.1233 21.87 78.1433 21.87C79.1633 21.87 80.0933 21.63 80.9333 21.15C81.7933 20.65 82.4733 19.94 82.9733 19.02C83.4733 18.08 83.7233 16.99 83.7233 15.75ZM115.787 3.06V24H111.587V10.38L105.977 24H102.797L97.1567 10.38V24H92.9567V3.06H97.7267L104.387 18.63L111.047 3.06H115.787ZM124.169 5.4C123.429 5.4 122.809 5.17 122.309 4.71C121.829 4.23 121.589 3.64 121.589 2.94C121.589 2.24 121.829 1.66 122.309 1.2C122.809 0.719999 123.429 0.479999 124.169 0.479999C124.909 0.479999 125.519 0.719999 125.999 1.2C126.499 1.66 126.749 2.24 126.749 2.94C126.749 3.64 126.499 4.23 125.999 4.71C125.519 5.17 124.909 5.4 124.169 5.4ZM126.239 7.38V24H122.039V7.38H126.239ZM137.379 10.83V18.87C137.379 19.43 137.509 19.84 137.769 20.1C138.049 20.34 138.509 20.46 139.149 20.46H141.099V24H138.459C134.919 24 133.149 22.28 133.149 18.84V10.83H131.169V7.38H133.149V3.27H137.379V7.38H141.099V10.83H137.379ZM150.42 9.96C150.96 9.08 151.66 8.39 152.52 7.89C153.4 7.39 154.4 7.14 155.52 7.14V11.55H154.41C153.09 11.55 152.09 11.86 151.41 12.48C150.75 13.1 150.42 14.18 150.42 15.72V24H146.22V7.38H150.42V9.96ZM159.369 15.63C159.369 13.95 159.699 12.46 160.359 11.16C161.039 9.86 161.949 8.86 163.089 8.16C164.249 7.46 165.539 7.11 166.959 7.11C168.199 7.11 169.279 7.36 170.199 7.86C171.139 8.36 171.889 8.99 172.449 9.75V7.38H176.679V24H172.449V21.57C171.909 22.35 171.159 23 170.199 23.52C169.259 24.02 168.169 24.27 166.929 24.27C165.529 24.27 164.249 23.91 163.089 23.19C161.949 22.47 161.039 21.46 160.359 20.16C159.699 18.84 159.369 17.33 159.369 15.63ZM172.449 15.69C172.449 14.67 172.249 13.8 171.849 13.08C171.449 12.34 170.909 11.78 170.229 11.4C169.549 11 168.819 10.8 168.039 10.8C167.259 10.8 166.539 10.99 165.879 11.37C165.219 11.75 164.679 12.31 164.259 13.05C163.859 13.77 163.659 14.63 163.659 15.63C163.659 16.63 163.859 17.51 164.259 18.27C164.679 19.01 165.219 19.58 165.879 19.98C166.559 20.38 167.279 20.58 168.039 20.58C168.819 20.58 169.549 20.39 170.229 20.01C170.909 19.61 171.449 19.05 171.849 18.33C172.249 17.59 172.449 16.71 172.449 15.69Z" fill="black"/>
</svg>
